<svg xmlns="http://www.w3.org/2000/svg" viewBox="0 0 37.36 25.02"><defs><style>.cls-1{fill:#1d1d1b;}.cls-2{fill:none;stroke:#1d1d1b;stroke-linecap:round;stroke-linejoin:round;stroke-width:1.42px;}</style></defs><g id="Capa_2" data-name="Capa 2"><g id="_01" data-name="01"><circle class="cls-1" cx="7.35" cy="17.67" r="7.35"/><circle class="cls-1" cx="30.02" cy="17.67" r="7.35"/><polyline class="cls-2" points="7.35 17.68 15.08 0.71 19.28 0.71"/><polygon class="cls-2" points="24.84 6.69 20.2 16.98 30.02 16.98 24.84 6.69"/><path class="cls-2" d="M12.51,6.69l2.84,7A5.22,5.22,0,0,0,20.2,17h0"/><path class="cls-1" d="M27.83,2.12H23A1.07,1.07,0,0,0,22,3.19h0a1.06,1.06,0,0,0,.81,1L28.17,5.5a.74.74,0,0,0,.91-.72V3.38A1.26,1.26,0,0,0,27.83,2.12Z"/><line class="cls-2" x1="26.12" y1="3.82" x2="24.34" y2="7.78"/></g></g></svg>