<svg xmlns="http://www.w3.org/2000/svg" viewBox="0 0 11.83 28.67"><defs><style>.cls-1{fill:white;}</style></defs><g id="Capa_2" data-name="Capa 2"><g id="_01" data-name="01"><path class="cls-1" d="M11.82,13.12a6.28,6.28,0,0,0-.09-1.21A5.92,5.92,0,0,0,9.14,8.06a2.11,2.11,0,0,1-1-1.75V.91A.9.9,0,0,0,7.24,0H4.59a.91.91,0,0,0-.91.91V6.33A2,2,0,0,1,2.73,8,5.9,5.9,0,0,0,0,13s0,.05,0,.08,0,0,0,.05V26.34a2.33,2.33,0,0,0,2.33,2.33H9.49a2.33,2.33,0,0,0,2.34-2.33V13.15S11.82,13.13,11.82,13.12Z"/></g></g></svg>