<svg xmlns="http://www.w3.org/2000/svg" viewBox="0 0 41.06 20.15"><defs><style>.cls-1{fill:white;}</style></defs><g id="Capa_2" data-name="Capa 2"><g id="_01" data-name="01"><path class="cls-1" d="M41.06,12.14c0-1.94-5.65-3.51-12.61-3.51a31.46,31.46,0,0,0-10,1.38,41.44,41.44,0,0,0-5.82-.39C5.65,9.62,0,11.19,0,13.13c0,1.2,2.17,2.26,5.48,2.89a1.23,1.23,0,0,0-.2.62c0,1.94,5.65,3.51,12.61,3.51s12.62-1.57,12.62-3.51a1.4,1.4,0,0,0-.54-1C36.22,15.42,41.06,13.94,41.06,12.14Z"/><path class="cls-1" d="M10.26,1.87a1.52,1.52,0,0,1,3-.71,21.77,21.77,0,0,1-.33,4.59.14.14,0,0,1-.25.06A21.35,21.35,0,0,1,10.26,1.87Z"/><path class="cls-1" d="M4.62,7A1.52,1.52,0,0,1,6,4.24,21.37,21.37,0,0,1,9.28,7.42a.13.13,0,0,1-.1.22A22,22,0,0,1,4.62,7Z"/><path class="cls-1" d="M17.25,3a1.52,1.52,0,0,1,2.6,1.57,21.66,21.66,0,0,1-3.46,3,.13.13,0,0,1-.21-.13A21.07,21.07,0,0,1,17.25,3Z"/></g></g></svg>