<svg width="516" height="401" viewBox="0 0 516 401" fill="none" xmlns="http://www.w3.org/2000/svg">
<g clip-path="url(#clip0_101_1235)">
<path d="M99.3755 163.744C112.469 163.744 123.083 152.96 123.083 139.658C123.083 126.357 112.469 115.573 99.3755 115.573C86.2824 115.573 75.6684 126.357 75.6684 139.658C75.6684 152.96 86.2824 163.744 99.3755 163.744Z" fill="#5A7F19"/>
<path d="M99.3755 180.517V130.412" stroke="#5A7F19" stroke-width="13.667" stroke-miterlimit="10" stroke-linecap="round" stroke-linejoin="round"/>
<path d="M160.337 163.744C173.43 163.744 184.044 152.96 184.044 139.658C184.044 126.357 173.43 115.573 160.337 115.573C147.244 115.573 136.63 126.357 136.63 139.658C136.63 152.96 147.244 163.744 160.337 163.744Z" fill="#5A7F19"/>
<path d="M160.337 180.517V130.412" stroke="#5A7F19" stroke-width="13.667" stroke-miterlimit="10" stroke-linecap="round" stroke-linejoin="round"/>
<path d="M220.874 163.744C233.968 163.744 244.582 152.96 244.582 139.658C244.582 126.357 233.968 115.573 220.874 115.573C207.781 115.573 197.167 126.357 197.167 139.658C197.167 152.96 207.781 163.744 220.874 163.744Z" fill="#5A7F19"/>
<path d="M220.874 180.517V130.412" stroke="#5A7F19" stroke-width="13.667" stroke-miterlimit="10" stroke-linecap="round" stroke-linejoin="round"/>
<path d="M394.319 46.3463L409.168 31.2875" stroke="#FFED00" stroke-width="12.8859" stroke-miterlimit="10" stroke-linecap="round" stroke-linejoin="round"/>
<path d="M289.744 150.712L301.456 139" stroke="#FFED00" stroke-width="12.8859" stroke-miterlimit="10" stroke-linecap="round" stroke-linejoin="round"/>
<path d="M394.319 135.863L409.168 150.712" stroke="#FFED00" stroke-width="12.8859" stroke-miterlimit="10" stroke-linecap="round" stroke-linejoin="round"/>
<path d="M289.744 31.2876L301.456 43" stroke="#FFED00" stroke-width="12.8859" stroke-miterlimit="10" stroke-linecap="round" stroke-linejoin="round"/>
<path d="M412.933 91.1045H434.057" stroke="#FFED00" stroke-width="12.8859" stroke-miterlimit="10" stroke-linecap="round" stroke-linejoin="round"/>
<path d="M265.064 91.1045H281.587" stroke="#FFED00" stroke-width="12.8859" stroke-miterlimit="10" stroke-linecap="round" stroke-linejoin="round"/>
<path d="M349.56 154.477V175.601" stroke="#FFED00" stroke-width="12.8859" stroke-miterlimit="10" stroke-linecap="round" stroke-linejoin="round"/>
<path d="M349.561 6.60779V23.1306" stroke="#FFED00" stroke-width="12.8859" stroke-miterlimit="10" stroke-linecap="round" stroke-linejoin="round"/>
<path d="M349.561 145.065C377.745 145.065 400.593 122.217 400.593 94.0325C400.593 65.848 377.745 42.9999 349.561 42.9999C321.376 42.9999 298.528 65.848 298.528 94.0325C298.528 122.217 321.376 145.065 349.561 145.065Z" fill="#FFED00"/>
<path d="M328.227 87.34C331 87.34 333.247 85.0926 333.247 82.3204C333.247 79.5481 331 77.3008 328.227 77.3008C325.455 77.3008 323.208 79.5481 323.208 82.3204C323.208 85.0926 325.455 87.34 328.227 87.34Z" fill="#1D1D1B"/>
<path d="M369.639 87.3399C372.411 87.3399 374.659 85.0925 374.659 82.3203C374.659 79.548 372.411 77.3007 369.639 77.3007C366.867 77.3007 364.619 79.548 364.619 82.3203C364.619 85.0925 366.867 87.3399 369.639 87.3399Z" fill="#1D1D1B"/>
<path d="M360.646 115.366C357.299 118.503 352.698 120.386 347.678 120.386C342.449 120.386 337.848 118.294 334.293 114.948" stroke="#E20613" stroke-width="7.65108" stroke-miterlimit="10" stroke-linecap="round" stroke-linejoin="round"/>
<path d="M318.905 273.805L437.228 228.716" stroke="white" stroke-width="47.399" stroke-miterlimit="10" stroke-linecap="round" stroke-linejoin="round"/>
<path d="M186.882 273.805L78.7717 228.716" stroke="white" stroke-width="47.399" stroke-miterlimit="10" stroke-linecap="round" stroke-linejoin="round"/>
<g opacity="0.55">
<path opacity="0.55" d="M318.905 289.499L437.228 334.589" stroke="white" stroke-width="47.399" stroke-miterlimit="10" stroke-linecap="round" stroke-linejoin="round"/>
<path opacity="0.55" d="M186.882 289.499L78.7718 334.589" stroke="white" stroke-width="47.399" stroke-miterlimit="10" stroke-linecap="round" stroke-linejoin="round"/>
</g>
<path d="M254.977 362.429C300.388 362.429 337.2 325.97 337.2 280.996C337.2 236.022 300.388 199.564 254.977 199.564C209.567 199.564 172.754 236.022 172.754 280.996C172.754 325.97 209.567 362.429 254.977 362.429Z" fill="white"/>
<path d="M213.866 280.464C217.359 277.271 221.927 275.408 227.032 275.408C232.406 275.408 237.243 277.537 240.736 280.996" stroke="#1D1D1B" stroke-width="9.37434" stroke-miterlimit="10" stroke-linecap="round" stroke-linejoin="round"/>
<path d="M273.249 280.464C276.742 277.271 281.31 275.408 286.415 275.408C291.789 275.408 296.626 277.537 300.119 280.996" stroke="#1D1D1B" stroke-width="9.37434" stroke-miterlimit="10" stroke-linecap="round" stroke-linejoin="round"/>
<path d="M292.058 321.446C282.385 330.228 269.487 335.551 255.514 335.551C240.736 335.551 227.301 329.696 217.627 320.116" stroke="#E20613" stroke-width="26.0174" stroke-miterlimit="10" stroke-linecap="round" stroke-linejoin="round"/>
<path d="M258 400.333C293.746 400.333 322.724 395.041 322.724 388.513C322.724 381.985 293.746 376.693 258 376.693C222.254 376.693 193.276 381.985 193.276 388.513C193.276 395.041 222.254 400.333 258 400.333Z" fill="#5A7F19"/>
</g>
<defs>
<clipPath id="clip0_101_1235">
<rect width="514.985" height="400" fill="white" transform="translate(0.50766 0.333313)"/>
</clipPath>
</defs>
</svg>
