<svg xmlns="http://www.w3.org/2000/svg" viewBox="0 0 24.66 31.37"><defs><style>.cls-1{fill:white;}</style></defs><g id="Capa_2" data-name="Capa 2"><g id="_01" data-name="01"><path class="cls-1" d="M24.61,25.46,20.27,13a2.91,2.91,0,0,0-2.37-1.86h0a1.43,1.43,0,0,1-1.28-2.3l0,0a5.2,5.2,0,0,0,1.23-3.36A5.53,5.53,0,0,0,12.46,0V0H12.2V0A5.53,5.53,0,0,0,6.79,5.44,5.2,5.2,0,0,0,8,8.8l0,0A1.34,1.34,0,0,1,7,11.1H7A2.91,2.91,0,0,0,4.39,13L0,25.46a.8.8,0,0,0,.65,1.05L3,26.84a.78.78,0,0,0,.86-.53l2.47-7.25a.39.39,0,0,1,.74.12L5.18,29.71,8,30.65a14.07,14.07,0,0,0,9.26-.13l2.23-.81L17.56,19.18a.39.39,0,0,1,.74-.12l2.47,7.25a.78.78,0,0,0,.86.53L24,26.51A.79.79,0,0,0,24.61,25.46Zm-12.28-23a3.23,3.23,0,0,1,3,3.42c0,1.89-1.76,3-3,4.29-.95-.87-3-2.4-3-4.29A3.23,3.23,0,0,1,12.33,2.41Z"/></g></g></svg>