<svg xmlns="http://www.w3.org/2000/svg" viewBox="0 0 29.29 21.86"><defs><style>.cls-1{fill:white;}</style></defs><g id="Capa_2" data-name="Capa 2"><g id="_01" data-name="01"><path class="cls-1" d="M26.79,0H22.2V.14l-.74,3.7h-.59a.78.78,0,0,0-.73.82v.16a.81.81,0,0,0,.76.86h.87l.76-3.8h3.6l-.39,2h-.63a.78.78,0,0,0-.73.82v.16a.81.81,0,0,0,.76.86H26L27.18,0Z"/><path class="cls-1" d="M18.07,4.1H13.48v.14l-.74,3.69h-.59a.78.78,0,0,0-.73.83v.16a.81.81,0,0,0,.76.86h.87L13.81,6h3.6L17,7.93h-.63a.79.79,0,0,0-.73.83v.16a.81.81,0,0,0,.76.86h.91L18.46,4.1Z"/><path class="cls-1" d="M14.65,11.86C6.56,11.86,0,14.1,0,16.86s6.56,5,14.65,5,14.64-2.24,14.64-5S22.74,11.86,14.65,11.86Zm0,6.17C11,18,8,17.12,8,16s3-2.05,6.65-2.05,6.64.92,6.64,2.05S18.32,18,14.65,18Z"/></g></g></svg>