<svg xmlns="http://www.w3.org/2000/svg" viewBox="0 0 16.44 22.18"><defs><style>.cls-1{fill:white;}</style></defs><g id="Capa_2" data-name="Capa 2"><g id="_01" data-name="01"><path class="cls-1" d="M16.44,8.22h0A8.22,8.22,0,0,0,0,8.22H0v14a1.55,1.55,0,0,0,1.1-.45,2.32,2.32,0,0,1,3.29,0,1.55,1.55,0,0,0,1.09.45h0a1.55,1.55,0,0,0,1.1-.45,2.32,2.32,0,0,1,3.29,0,1.55,1.55,0,0,0,1.09.45h0a1.55,1.55,0,0,0,1.1-.45,2.32,2.32,0,0,1,3.29,0,1.55,1.55,0,0,0,1.09.45v-14ZM4.83,11.09A2.2,2.2,0,1,1,7,8.89,2.19,2.19,0,0,1,4.83,11.09Zm6.78,0a2.2,2.2,0,1,1,2.2-2.2A2.19,2.19,0,0,1,11.61,11.09Z"/></g></g></svg>