<svg xmlns="http://www.w3.org/2000/svg" viewBox="0 0 153.93957 156.28204"><defs><style>.cls-1{fill:#fff;}.cls-2,.cls-3,.cls-4{fill:none;}.cls-2{stroke:#fff;stroke-width:15.87025px;}.cls-2,.cls-3{stroke-linecap:round;stroke-linejoin:round;}.cls-3{stroke:#1d1d1b;stroke-width:2.83465px;}.cls-4{stroke:#e20613;stroke-miterlimit:10;stroke-width:3.32667px;}</style></defs><title>Recurso 3</title><g id="Capa_2" data-name="Capa 2"><g id="_01" data-name="01"><path class="cls-1" d="M118.92506,27.10661a14.82477,14.82477,0,0,0-17.83953-18.868,14.76566,14.76566,0,0,0-17.36845.87608A14.82222,14.82222,0,0,0,59.46471,4.43822,14.84281,14.84281,0,1,0,47.33919,29.7201,14.83233,14.83233,0,1,0,72.52413,45.178a14.76573,14.76573,0,0,0,8.51237-.94936,14.83748,14.83748,0,0,0,24.956-5.66143c.12733-.39983.22527-.80154.31741-1.20339A14.842,14.842,0,0,0,118.92506,27.10661Z"/><circle class="cls-1" cx="76.90072" cy="103.99561" r="30.56674"/><ellipse class="cls-1" cx="76.19607" cy="153.00404" rx="25.33854" ry="3.278"/><path class="cls-2" d="M54.40509,106.00212s-6.44947-17.87369-22.509-7.863c-7.77533,4.84674-16.7603,15.50225-23.961,25.20571"/><path class="cls-2" d="M99.53448,106.00212s6.44947-17.87369,22.509-7.863c7.77532,4.84674,16.76029,15.50225,23.961,25.20571"/><line class="cls-3" x1="85.93444" y1="101.92401" x2="90.07764" y2="106.0672"/><line class="cls-3" x1="69.29299" y1="101.92401" x2="65.14979" y2="106.06721"/><rect class="cls-1" x="45.78935" y="62.759" width="7.2932" height="7.2932" transform="translate(-32.4764 54.40624) rotate(-45)"/><rect class="cls-1" x="88.50722" y="62.759" width="7.2932" height="7.2932" transform="translate(-19.96462 84.61234) rotate(-45)"/><rect class="cls-1" x="75.8541" y="51.44378" width="7.2932" height="7.2932" transform="translate(-15.66956 72.35108) rotate(-45)"/><rect class="cls-1" x="100.29795" y="51.44378" width="7.2932" height="7.2932" transform="translate(-8.51012 89.63549) rotate(-45)"/><rect class="cls-1" x="62.67837" y="62.759" width="7.2932" height="7.2932" transform="translate(-27.52972 66.34859) rotate(-45)"/><rect class="cls-4" x="62.28536" y="114.47187" width="29.86846" height="9.9628" rx="4.9814"/><line class="cls-4" x1="70.01863" y1="114.47187" x2="70.01863" y2="124.43468"/><line class="cls-4" x1="77.21959" y1="114.47187" x2="77.21959" y2="124.43468"/><line class="cls-4" x1="84.42055" y1="114.47187" x2="84.42055" y2="124.43468"/></g></g></svg>