<svg xmlns="http://www.w3.org/2000/svg" viewBox="0 0 109.37 156.24"><defs><style>.cls-1{fill:#fff;}.cls-2,.cls-3,.cls-5,.cls-6{fill:none;stroke-linecap:round;stroke-linejoin:round;}.cls-2{stroke:#1d1d1b;}.cls-2,.cls-5{stroke-width:2.83px;}.cls-3{stroke:#e20613;stroke-width:6.73px;}.cls-4{fill:#1d1d1b;}.cls-5{stroke:#0f2c3a;}.cls-6{stroke:#fff;stroke-width:14.17px;}.cls-7{fill:#0f2c3a;}</style></defs><g id="Capa_2" data-name="Capa 2"><g id="_01" data-name="01"><circle class="cls-1" cx="54.99" cy="103.95" r="30.57"/><path class="cls-2" d="M71.05,106.45a7.2,7.2,0,0,1-10-.16"/><path class="cls-2" d="M48.91,106.45a7.2,7.2,0,0,1-10-.16"/><path class="cls-3" d="M42.86,123.71a19.33,19.33,0,0,1,10.79-3.1A19.13,19.13,0,0,1,64.81,124"/><ellipse class="cls-4" cx="54.99" cy="152.96" rx="25.34" ry="3.28"/><line class="cls-5" x1="47.07" y1="60.81" x2="47.07" y2="66.8"/><line class="cls-5" x1="32.06" y1="65.3" x2="32.06" y2="71.29"/><line class="cls-5" x1="50.02" y1="85.56" x2="50.02" y2="91.55"/><line class="cls-5" x1="38.93" y1="76.95" x2="38.93" y2="82.94"/><line class="cls-5" x1="56.56" y1="69.8" x2="56.56" y2="75.79"/><line class="cls-5" x1="69.07" y1="55.33" x2="69.07" y2="61.32"/><line class="cls-5" x1="77.31" y1="67.94" x2="77.31" y2="73.93"/><line class="cls-5" x1="64.81" y1="81.44" x2="64.81" y2="87.43"/><path class="cls-6" d="M32.06,91.55S15.67,83.88,9.73,98.21c-2.88,6.94-3,18.06-2.3,27.68"/><path class="cls-6" d="M77.31,91.55s16.39-7.67,22.33,6.66c2.88,6.94,3,18.06,2.3,27.68"/><path class="cls-7" d="M96.79,26.61a14.83,14.83,0,0,0-18-18.69A14.78,14.78,0,0,0,61.4,9,14.81,14.81,0,0,0,37.11,4.55a14.84,14.84,0,1,0-14.7,24.83,15,15,0,0,0,2.83.57,14.83,14.83,0,1,0,25.34,15.2,14.7,14.7,0,0,0,8.5-1A14.83,14.83,0,0,0,84,38.2c.12-.4.22-.8.3-1.21A14.83,14.83,0,0,0,96.79,26.61Z"/></g></g></svg>