<svg xmlns="http://www.w3.org/2000/svg" viewBox="0 0 145.78653 168.7367"><defs><style>.cls-1{fill:#1d1d1b;}.cls-2,.cls-5,.cls-6{fill:none;stroke-linecap:round;stroke-linejoin:round;}.cls-2{stroke:#fff;stroke-width:14.17323px;}.cls-3{fill:#072e66;}.cls-4{fill:#fff;}.cls-5{stroke:#1d1d1b;stroke-width:2.83465px;}.cls-6{stroke:#e20613;stroke-width:6.73028px;}</style></defs><title>Recurso 2</title><g id="Capa_2" data-name="Capa 2"><g id="_01" data-name="01"><ellipse class="cls-1" cx="65.58044" cy="165.4587" rx="25.33854" ry="3.278"/><path class="cls-2" d="M43.24054,104.04813s-16.39005-7.66794-22.33179,6.66213c-2.87673,6.938-2.96788,18.05438-2.29644,27.67683"/><path class="cls-2" d="M94.85152,104.04813s16.39005-7.66794,22.33179,6.66213c2.87673,6.938,2.96788,18.05438,2.29644,27.67683"/><path class="cls-3" d="M107.26734,50.70439a14.82477,14.82477,0,0,0-18.03111-18.685,14.76566,14.76566,0,0,0-17.35861,1.05324,14.82221,14.82221,0,0,0-24.29881-4.42873A14.84282,14.84282,0,1,0,35.71186,54.04812,14.83234,14.83234,0,1,0,61.05321,69.24828a14.76574,14.76574,0,0,0,8.50224-1.03617,14.83748,14.83748,0,0,0,24.897-5.91576c.12324-.4011.21708-.80379.30511-1.20656A14.84207,14.84207,0,0,0,107.26734,50.70439Z"/><path class="cls-3" d="M70.05275,25.81613A12.23615,12.23615,0,0,0,55.17013,10.39376a12.18736,12.18736,0,0,0-14.32754.86933,12.23405,12.23405,0,0,0-20.0559-3.65541A12.251,12.251,0,1,0,10.99189,28.576,12.24239,12.24239,0,1,0,31.90827,41.122a12.18736,12.18736,0,0,0,7.01763-.85523A12.24665,12.24665,0,0,0,59.47551,35.384c.10172-.33106.17917-.66344.25183-.99588A12.25041,12.25041,0,0,0,70.05275,25.81613Z"/><path class="cls-3" d="M145.14794,26.07573A14.37239,14.37239,0,0,1,127.66705,44.1906a14.31509,14.31509,0,0,1-16.8289-1.0211,14.3699,14.3699,0,0,1-23.55733,4.29358A14.38989,14.38989,0,1,1,75.776,22.834,14.37973,14.37973,0,1,1,100.34405,8.09771a14.31524,14.31524,0,0,1,8.24279,1.00454,14.38472,14.38472,0,0,1,24.13724,5.73525c.11948.38886.21046.77926.2958,1.16974A14.38914,14.38914,0,0,1,145.14794,26.07573Z"/><circle class="cls-4" cx="65.86495" cy="116.45027" r="30.56674"/><line class="cls-5" x1="55.71238" y1="94.67293" x2="55.71238" y2="97.60261"/><line class="cls-5" x1="76.42228" y1="94.67293" x2="76.42228" y2="97.60261"/><path class="cls-6" d="M54.18719,115.79685a20.29384,20.29384,0,0,1,21.94624.25854"/></g></g></svg>