<svg xmlns="http://www.w3.org/2000/svg" viewBox="0 0 150.70762 166.25941"><defs><style>.cls-1{fill:#ffed00;}.cls-2{fill:#fff;}.cls-3,.cls-5,.cls-6,.cls-7,.cls-8{fill:none;}.cls-3,.cls-8{stroke:#e20613;}.cls-3,.cls-5,.cls-6,.cls-7{stroke-linecap:round;stroke-linejoin:round;}.cls-3{stroke-width:7.86713px;}.cls-4{fill:#e20613;}.cls-5{stroke:#1d1d1b;}.cls-5,.cls-7{stroke-width:2.83465px;}.cls-6{stroke:#fff;stroke-width:14.17323px;}.cls-7{stroke:#2eb3ff;}.cls-8{stroke-miterlimit:10;stroke-width:4.25197px;}</style></defs><title>Recurso 5</title><g id="Capa_2" data-name="Capa 2"><g id="_01" data-name="01"><rect class="cls-1" x="71.08839" y="2.05714" width="9.93276" height="9.93276" transform="translate(17.30955 55.83598) rotate(-45)"/><rect class="cls-1" x="71.08839" y="83.96505" width="9.93276" height="9.93276" transform="translate(-40.60809 79.82625) rotate(-45)"/><rect class="cls-1" x="57.78239" y="4.27898" width="9.93276" height="9.93276" transform="translate(26.89495 61.56541) rotate(-63.95961)"/><rect class="cls-1" x="84.39439" y="81.74321" width="9.93276" height="9.93276" transform="translate(-27.77627 128.93297) rotate(-63.95961)"/><rect class="cls-1" x="45.30367" y="11.19326" width="9.93276" height="9.93276" transform="translate(28.96183 64.4729) rotate(-84.02081)"/><rect class="cls-1" x="96.8731" y="74.82894" width="9.93276" height="9.93276" transform="translate(11.86993 172.76871) rotate(-84.02081)"/><rect class="cls-1" x="35.95384" y="21.96852" width="9.93276" height="9.93276" transform="translate(24.75108 73.17894) rotate(-104.08201)"/><rect class="cls-1" x="106.22293" y="64.05368" width="9.93276" height="9.93276" transform="translate(71.29693 193.66126) rotate(-104.08201)"/><rect class="cls-1" x="30.86747" y="35.29722" width="9.93276" height="9.93276" transform="translate(22.62241 92.5195) rotate(-124.14321)"/><rect class="cls-1" x="111.30931" y="50.72497" width="9.93276" height="9.93276" transform="translate(135.44472 183.18296) rotate(-124.14321)"/><rect class="cls-1" x="30.66176" y="49.56197" width="9.93276" height="9.93276" transform="translate(32.63305 119.59551) rotate(-144.20441)"/><rect class="cls-1" x="111.51502" y="36.46022" width="9.93276" height="9.93276" transform="translate(186.73026 143.1575) rotate(-144.20441)"/><rect class="cls-1" x="35.36168" y="63.0318" width="9.93276" height="9.93276" transform="translate(60.70535 144.3845) rotate(-164.26561)"/><rect class="cls-1" x="106.8151" y="22.99039" width="9.93276" height="9.93276" transform="matrix(-0.96253, -0.27118, 0.27118, -0.96253, 211.79314, 85.17869)"/><rect class="cls-1" x="44.39691" y="74.07219" width="9.93276" height="9.93276" transform="translate(104.54897 154.12764) rotate(175.67319)"/><rect class="cls-1" x="97.77987" y="11.95001" width="9.93276" height="9.93276" transform="translate(206.47592 26.03284) rotate(175.67319)"/><rect class="cls-1" x="56.67105" y="81.34342" width="9.93276" height="9.93276" transform="translate(153.41347 139.46724) rotate(155.61199)"/><rect class="cls-1" x="85.50572" y="4.67877" width="9.93276" height="9.93276" transform="translate(176.854 -18.92751) rotate(155.61199)"/><circle class="cls-1" cx="76.05477" cy="48.13677" r="41.95402"/><circle class="cls-2" cx="79.31941" cy="113.97298" r="30.56674"/><path class="cls-3" d="M77.21442,134.16811a20.33025,20.33025,0,0,1,4.68235-.00908"/><ellipse class="cls-4" cx="80.53388" cy="162.98141" rx="25.33854" ry="3.278"/><line class="cls-5" x1="63.89314" y1="119.19803" x2="72.69427" y2="124.38063"/><line class="cls-5" x1="95.27991" y1="119.19803" x2="86.47877" y2="124.38063"/><path class="cls-6" d="M56.695,101.57084s-16.39-7.66794-22.33178,6.66213a38.10474,38.10474,0,0,0-2.33987,10.965,109.57848,109.57848,0,0,0,.04342,16.71181"/><path class="cls-6" d="M101.94383,101.57084s16.39-7.66794,22.33178,6.66213c2.87673,6.938,2.96788,18.05438,2.29644,27.67683"/><line class="cls-7" x1="69.60192" y1="89.59889" x2="69.60192" y2="95.5888"/><line class="cls-7" x1="61.4558" y1="105.74" x2="61.4558" y2="111.72991"/><line class="cls-7" x1="99.83895" y1="96.73421" x2="99.83895" y2="102.72412"/><rect class="cls-8" x="56.96667" y="52.01548" width="38.1762" height="12.7339" rx="6.36694"/><line class="cls-8" x1="66.8509" y1="52.01548" x2="66.8509" y2="64.74938"/><line class="cls-8" x1="76.05477" y1="52.01548" x2="76.05477" y2="64.74938"/><line class="cls-8" x1="85.25863" y1="52.01548" x2="85.25863" y2="64.74938"/><circle class="cls-4" cx="62.72591" cy="33.98546" r="3.19794"/><circle class="cls-4" cx="88.68146" cy="33.98546" r="3.19794"/><circle class="cls-1" cx="11.11316" cy="20.89803" r="3.98164"/><circle class="cls-1" cx="18.46732" cy="48.13677" r="3.98164"/><circle class="cls-1" cx="3.98164" cy="59.57764" r="3.98164"/><circle class="cls-1" cx="128.80577" cy="27.31861" r="3.98164"/><circle class="cls-1" cx="146.72597" cy="16.15964" r="3.98164"/><circle class="cls-1" cx="142.74433" cy="52.01548" r="3.98164"/></g></g></svg>