<svg xmlns="http://www.w3.org/2000/svg" viewBox="0 0 126.05 164.5"><defs><style>.cls-1{fill:#1d1d1b;}.cls-2,.cls-3,.cls-5,.cls-8,.cls-9{fill:none;stroke-linecap:round;stroke-linejoin:round;}.cls-2{stroke:#fff;stroke-width:14.17px;}.cls-3{stroke:#ffed00;stroke-width:4.02px;}.cls-4{fill:#ffed00;}.cls-5,.cls-8{stroke:#e20613;}.cls-5{stroke-width:2.38px;}.cls-6{fill:#072e66;}.cls-7{fill:#fff;}.cls-8{stroke-width:7.87px;}.cls-9{stroke:#1d1d1b;stroke-width:2.83px;}</style></defs><g id="Capa_2" data-name="Capa 2"><g id="_01" data-name="01"><ellipse class="cls-1" cx="54.4" cy="161.22" rx="25.34" ry="3.28"/><path class="cls-2" d="M32.06,99.81s-16.39-7.67-22.33,6.66c-2.88,6.94-3,18-2.3,27.68"/><line class="cls-3" x1="106.27" y1="14.7" x2="111.05" y2="9.93"/><line class="cls-3" x1="72.82" y1="48.15" x2="76.58" y2="44.39"/><line class="cls-3" x1="106.27" y1="43.38" x2="111.05" y2="48.15"/><line class="cls-3" x1="72.82" y1="9.93" x2="76.58" y2="13.68"/><line class="cls-3" x1="112.21" y1="29.04" x2="118.96" y2="29.04"/><line class="cls-3" x1="64.9" y1="29.04" x2="70.22" y2="29.04"/><line class="cls-3" x1="91.93" y1="49.32" x2="91.93" y2="56.07"/><line class="cls-3" x1="91.93" y1="2.01" x2="91.93" y2="7.32"/><circle class="cls-4" cx="91.93" cy="29.97" r="16.32"/><circle class="cls-1" cx="85.11" cy="22.21" r="1.63"/><circle class="cls-1" cx="98.36" cy="22.21" r="1.63"/><line class="cls-5" x1="96.39" y1="33.62" x2="93.23" y2="33.62"/><path class="cls-6" d="M96.09,46.46a14.82,14.82,0,0,0-18-18.68,14.72,14.72,0,0,0-17.35,1A14.82,14.82,0,0,0,36.4,24.4,14.83,14.83,0,1,0,24.53,49.81a15.12,15.12,0,0,0-2.18,4.34A14.84,14.84,0,0,0,49.87,65a14.78,14.78,0,0,0,8.5-1,14.83,14.83,0,0,0,24.9-5.91c.12-.41.22-.81.31-1.21A14.85,14.85,0,0,0,96.09,46.46Z"/><circle class="cls-7" cx="54.68" cy="112.21" r="30.57"/><line class="cls-2" x1="74.7" y1="100.87" x2="118.96" y2="93.5"/><line class="cls-8" x1="45.38" y1="119.75" x2="64.9" y2="119.75"/><line class="cls-9" x1="44.53" y1="94.43" x2="44.53" y2="100.29"/><line class="cls-9" x1="66.55" y1="97.36" x2="60.69" y2="97.36"/></g></g></svg>