<svg xmlns="http://www.w3.org/2000/svg" viewBox="0 0 112.87976 156.24134"><defs><style>.cls-1{fill:#fff;}.cls-2,.cls-3,.cls-5,.cls-6{fill:none;stroke-linecap:round;stroke-linejoin:round;}.cls-2{stroke:#1d1d1b;}.cls-2,.cls-5{stroke-width:2.83465px;}.cls-3{stroke:#e20613;stroke-width:6.73028px;}.cls-4{fill:#1d1d1b;}.cls-5{stroke:#0e5ce5;}.cls-6{stroke:#fff;stroke-width:14.17323px;}</style></defs><title>Recurso 6</title><g id="Capa_2" data-name="Capa 2"><g id="_01" data-name="01"><circle class="cls-1" cx="54.98931" cy="103.9549" r="30.56674"/><path class="cls-2" d="M61.06848,108.21588a7.22334,7.22334,0,0,1,9.98506.16072"/><path class="cls-3" d="M64.80711,120.87027a19.33488,19.33488,0,0,1-10.78853,3.09491,19.1595,19.1595,0,0,1-11.15771-3.35344"/><ellipse class="cls-4" cx="54.98931" cy="152.96334" rx="25.33854" ry="3.278"/><line class="cls-5" x1="47.0712" y1="60.80807" x2="47.0712" y2="66.79798"/><line class="cls-5" x1="32.05917" y1="65.30312" x2="32.05917" y2="71.29303"/><line class="cls-5" x1="50.02092" y1="85.56286" x2="50.02092" y2="91.55277"/><line class="cls-5" x1="38.92507" y1="76.94918" x2="38.92507" y2="82.93909"/><line class="cls-5" x1="56.55613" y1="69.79817" x2="56.55613" y2="75.78808"/><line class="cls-5" x1="69.07499" y1="55.33309" x2="69.07499" y2="61.323"/><line class="cls-5" x1="77.30823" y1="67.94339" x2="77.30823" y2="73.9333"/><line class="cls-5" x1="64.80711" y1="81.44423" x2="64.80711" y2="87.43414"/><path class="cls-6" d="M32.05917,91.55277S15.66912,83.88483,9.72739,98.21489c-2.87674,6.938-2.96789,18.05439-2.29645,27.67683"/><path class="cls-6" d="M80.8206,95.589s16.39005,7.66794,22.33178-6.66213c2.87673-6.938,2.96788-18.05438,2.29643-27.67683"/><path class="cls-1" d="M96.7943,26.60722a14.82477,14.82477,0,0,0-18.03111-18.685A14.76566,14.76566,0,0,0,61.40458,8.97541,14.82221,14.82221,0,0,0,37.10577,4.54668,14.84281,14.84281,0,1,0,25.23882,29.951,14.83234,14.83234,0,1,0,50.58017,45.15111,14.76582,14.76582,0,0,0,59.08241,44.115a14.83749,14.83749,0,0,0,24.897-5.91577c.12324-.4011.21708-.80379.30511-1.20656A14.84206,14.84206,0,0,0,96.7943,26.60722Z"/><line class="cls-2" x1="44.41013" y1="109.22156" x2="44.41014" y2="103.3622"/></g></g></svg>