<svg xmlns="http://www.w3.org/2000/svg" viewBox="0 0 17.84 20.74"><defs><style>.cls-1{fill:white;}</style></defs><g id="Capa_2" data-name="Capa 2"><g id="_01" data-name="01"><path class="cls-1" d="M9.62,18.12a2.63,2.63,0,0,1-5.26,0c0-1.34,1.51-5.29,2.42-7.61a.22.22,0,0,1,.42,0C8.14,12.89,9.62,16.78,9.62,18.12Z"/><path class="cls-1" d="M17.84,12.93a2.64,2.64,0,0,1-5.27,0c0-1.33,1.51-5.28,2.42-7.6a.23.23,0,0,1,.43,0C16.35,7.71,17.84,11.59,17.84,12.93Z"/><path class="cls-1" d="M5.26,7.75A2.63,2.63,0,0,1,0,7.75C0,6.41,1.51,2.46,2.42.15a.23.23,0,0,1,.43,0C3.78,2.52,5.26,6.41,5.26,7.75Z"/></g></g></svg>