<?xml version="1.0" encoding="utf-8"?>
<!-- Generator: Adobe Illustrator 25.2.1, SVG Export Plug-In . SVG Version: 6.00 Build 0)  -->
<svg version="1.1" id="Capa_1" xmlns="http://www.w3.org/2000/svg" xmlns:xlink="http://www.w3.org/1999/xlink" x="0px" y="0px"
	 viewBox="0 0 26 26" style="enable-background:new 0 0 26 26;" xml:space="preserve">
<style type="text/css">
	.st0{clip-path:url(#SVGID_2_);}
	.st1{fill:#FFFFFF;}
</style>
<g>
	<defs>
		<rect id="SVGID_1_" width="26" height="26"/>
	</defs>
	<clipPath id="SVGID_2_">
		<use xlink:href="#SVGID_1_"  style="overflow:visible;"/>
	</clipPath>
	<g class="st0">
		<path class="st1" d="M13,26c7.2,0,13-5.8,13-13S20.2,0,13,0S0,5.8,0,13S5.8,26,13,26z"/>
		<path d="M8,15c-0.1,0-0.2,0-0.2-0.1c-0.1,0-0.1,0-0.1-0.1v-3.2c0-0.1,0-0.2,0.1-0.2h10.5c0.1,0,0.1,0,0.1,0.1v3.2
			c0,0.1,0,0.2-0.1,0.2C18.2,15,18.2,15,18.1,15H8z"/>
	</g>
</g>
</svg>
