<svg xmlns="http://www.w3.org/2000/svg" viewBox="0 0 111.92268 166.22297"><defs><style>.cls-1{fill:#fff;}.cls-2,.cls-3,.cls-4,.cls-5{fill:none;stroke-linecap:round;stroke-linejoin:round;}.cls-2{stroke:#0e5ce5;}.cls-2,.cls-5{stroke-width:2.83465px;}.cls-3{stroke:#fff;stroke-width:14.17323px;}.cls-4{stroke:#e20613;stroke-width:7.86713px;}.cls-5{stroke:#1d1d1b;}.cls-6{fill:#0e5ce5;}</style></defs><title>Recurso 1</title><g id="Capa_2" data-name="Capa 2"><g id="_01" data-name="01"><circle class="cls-1" cx="54.77669" cy="103.9549" r="30.56674"/><line class="cls-2" x1="46.85858" y1="45.15111" x2="46.85858" y2="79.0567"/><line class="cls-2" x1="34.39773" y1="41.90784" x2="34.39773" y2="70.63119"/><line class="cls-2" x1="52.07602" y1="45.15111" x2="52.07602" y2="91.55277"/><line class="cls-2" x1="40.98018" y1="45.15111" x2="40.98018" y2="87.43414"/><line class="cls-2" x1="58.32776" y1="38.46104" x2="58.32776" y2="73.62391"/><line class="cls-2" x1="71.13009" y1="48.66948" x2="71.13009" y2="66.22694"/><line class="cls-2" x1="77.09561" y1="44.58869" x2="77.09561" y2="75.2253"/><line class="cls-2" x1="64.59449" y1="41.90784" x2="64.59449" y2="87.43414"/><path class="cls-3" d="M31.84655,91.55277S14.71619,55.04967,9.51477,98.21489c-.89855,7.45682-2.96789,18.05439-2.29645,27.67683"/><path class="cls-3" d="M80.07613,91.55277s17.13037-36.5031,22.33179,6.66212c.89854,7.45682,2.96788,18.05439,2.29644,27.67683"/><path class="cls-1" d="M96.58168,26.60722a14.82477,14.82477,0,0,0-18.03111-18.685A14.76566,14.76566,0,0,0,61.192,8.97541,14.82221,14.82221,0,0,0,36.89315,4.54668,14.84281,14.84281,0,1,0,25.0262,29.951,14.83234,14.83234,0,1,0,50.36755,45.15111,14.76582,14.76582,0,0,0,58.86979,44.115a14.83749,14.83749,0,0,0,24.897-5.91577c.12324-.4011.21708-.80379.30511-1.20656A14.84206,14.84206,0,0,0,96.58168,26.60722Z"/><line class="cls-4" x1="38.71246" y1="112.35548" x2="72.40811" y2="112.35548"/><line class="cls-5" x1="45.9632" y1="103.82024" x2="33.23793" y2="100.70212"/><line class="cls-5" x1="77.89272" y1="100.70212" x2="65.16745" y2="103.82024"/><ellipse class="cls-6" cx="34.8824" cy="154.75057" rx="10.67245" ry="1.78723"/><ellipse class="cls-6" cx="77.89272" cy="154.75057" rx="10.67245" ry="1.78723"/><ellipse class="cls-6" cx="33.23793" cy="159.49234" rx="4.82796" ry="1.16732"/><ellipse class="cls-6" cx="69.99541" cy="160.65966" rx="4.82796" ry="1.16732"/><ellipse class="cls-6" cx="42.68246" cy="165.05565" rx="4.82796" ry="1.16732"/><ellipse class="cls-6" cx="54.77669" cy="155.64418" rx="16.92219" ry="2.68085"/></g></g></svg>