<svg xmlns="http://www.w3.org/2000/svg" viewBox="0 0 111.91 138.37"><defs><style>.cls-1{fill:#fff;}.cls-2,.cls-3,.cls-4{fill:none;stroke-linecap:round;stroke-linejoin:round;}.cls-2{stroke:#e20613;stroke-width:7.87px;}.cls-3{stroke:#fff;stroke-width:15.87px;}.cls-4{stroke:#1d1d1b;stroke-width:2.83px;}</style></defs><g id="Capa_2" data-name="Capa 2"><g id="_01" data-name="01"><ellipse class="cls-1" cx="59.16" cy="40.4" rx="1.8" ry="6.54" transform="translate(-10.9 25.42) rotate(-22.26)"/><ellipse class="cls-1" cx="14.85" cy="20.14" rx="1.8" ry="6.54" transform="translate(-6.52 7.13) rotate(-22.26)"/><ellipse class="cls-1" cx="32.29" cy="25.39" rx="1.8" ry="6.54" transform="translate(-7.21 14.13) rotate(-22.26)"/><ellipse class="cls-1" cx="47.29" cy="21.9" rx="1.8" ry="6.54" transform="matrix(0.93, -0.38, 0.38, 0.93, -4.77, 19.55)"/><ellipse class="cls-1" cx="58.15" cy="8.78" rx="1.8" ry="6.54" transform="matrix(0.93, -0.38, 0.38, 0.93, 1.01, 22.68)"/><ellipse class="cls-1" cx="32.29" cy="6.09" rx="1.8" ry="6.54" transform="matrix(0.93, -0.38, 0.38, 0.93, 0.1, 12.69)"/><path class="cls-1" d="M11.72,35.56c1.36,3.34,1,5.6,0,6S9,39.5,7.63,36.16,5.9,29.8,6.81,29.42,10.35,32.21,11.72,35.56Z"/><circle class="cls-1" cx="30.57" cy="86.08" r="30.57"/><ellipse class="cls-1" cx="44.24" cy="135.09" rx="39.72" ry="3.28"/><line class="cls-2" x1="18.59" y1="91.26" x2="44.02" y2="95.99"/><path class="cls-3" d="M18.25,68.29c.28-11,9.57-21.09,20.52-22.26,3.55-.38,7.17.06,10.66-.64C58.32,43.61,64,35.19,71,29.48a10.8,10.8,0,0,1,4-2.29,4.41,4.41,0,0,1,4.32,1.1"/><line class="cls-4" x1="39.32" y1="81.25" x2="44.8" y2="76.2"/><line class="cls-4" x1="20.65" y1="79.38" x2="28.64" y2="76.2"/><path class="cls-3" d="M53.75,85.54a16.59,16.59,0,0,1,15.12-9.6c3.76.09,7.37,1.47,11.12,1.71,9,.59,16.92-5.24,24-10.78"/></g></g></svg>