<svg xmlns="http://www.w3.org/2000/svg" viewBox="0 0 111.8 156.28"><defs><style>.cls-1{fill:#fff;}.cls-2,.cls-3,.cls-4{fill:none;stroke-linecap:round;stroke-linejoin:round;}.cls-2{stroke:#e20613;stroke-width:7.87px;}.cls-3{stroke:#1d1d1b;stroke-width:2.83px;}.cls-4{stroke:#fff;stroke-width:15.87px;}</style></defs><g id="Capa_2" data-name="Capa 2"><g id="_01" data-name="01"><path class="cls-1" d="M97.79,27.11A14.83,14.83,0,0,0,80,8.24a14.43,14.43,0,0,0-3.56-1.7,14.83,14.83,0,0,0-13.8,2.57A14.83,14.83,0,0,0,38.33,4.44a14.82,14.82,0,0,0-24.58,6A14.83,14.83,0,0,0,26.21,29.72,14.49,14.49,0,0,0,24,34a14.83,14.83,0,0,0,27.4,11.14,14.85,14.85,0,0,0,8.52-1,14.83,14.83,0,0,0,25-5.66c.13-.4.23-.8.32-1.21A14.81,14.81,0,0,0,97.79,27.11Z"/><circle class="cls-1" cx="55.77" cy="104" r="30.57"/><path class="cls-2" d="M49.08,101.45c.34-.08,3.16.9,6,.92a22.42,22.42,0,0,0,6-.92"/><circle class="cls-1" cx="24.01" cy="59.43" r="3.59"/><circle class="cls-1" cx="40.98" cy="67.53" r="3.59"/><circle class="cls-1" cx="52.67" cy="59.11" r="3.59"/><circle class="cls-1" cx="76.51" cy="73.43" r="3.59"/><circle class="cls-1" cx="75.43" cy="59.11" r="3.59"/><ellipse class="cls-1" cx="55.06" cy="153" rx="25.34" ry="3.28"/><path class="cls-3" d="M39,88.07a7.24,7.24,0,0,1,10,.16"/><path class="cls-3" d="M61.14,88.07a7.24,7.24,0,0,1,10,.16"/><path class="cls-4" d="M78.89,97.26s16.39,9.62,22.33-8.35c2.88-8.7,3-22.64,2.3-34.7"/><path class="cls-4" d="M32.91,97.26s-16.39,9.62-22.33-8.35c-2.88-8.7-3-22.64-2.3-34.7"/></g></g></svg>