<svg xmlns="http://www.w3.org/2000/svg" viewBox="0 0 24.57 20.66"><defs><style>.cls-1{fill:white;}</style></defs><g id="Capa_2" data-name="Capa 2"><g id="_01" data-name="01"><path class="cls-1" d="M14.7,6.64a2,2,0,0,0,.64-.26A2.35,2.35,0,0,0,16,3.13a2.36,2.36,0,0,0-3.22-.82,2.27,2.27,0,0,0-1,2.14.73.73,0,0,1-.5.75,1.55,1.55,0,0,0-1,.91,1.62,1.62,0,0,0-.11.53H0A12.27,12.27,0,0,0,5.87,17.12a1.15,1.15,0,0,1,.55,1v1.29a1.27,1.27,0,0,0,1.27,1.27h9.19a1.27,1.27,0,0,0,1.27-1.27V18.1a1.15,1.15,0,0,1,.55-1A12.27,12.27,0,0,0,24.57,6.64Z"/><path class="cls-1" d="M8.82,3.92A1.91,1.91,0,0,0,11,2.28,1.92,1.92,0,0,0,9.47,0,1.92,1.92,0,0,0,7.33,1.67,1.92,1.92,0,0,0,8.82,3.92Z"/></g></g></svg>