<svg xmlns="http://www.w3.org/2000/svg" viewBox="0 0 133.2 139.65"><defs><style>.cls-1{fill:#25668f;}.cls-2{fill:#0f2c3a;}.cls-3{fill:#fff;}.cls-4,.cls-5,.cls-6,.cls-7{fill:none;stroke-linecap:round;stroke-linejoin:round;}.cls-4{stroke:#e20613;stroke-width:7.87px;}.cls-5{stroke:#fff;stroke-width:15.87px;}.cls-6{stroke:#1d1d1b;}.cls-6,.cls-7{stroke-width:2.83px;}.cls-7{stroke:#0f2c3a;}</style></defs><g id="Capa_2" data-name="Capa 2"><g id="_01" data-name="01"><path class="cls-1" d="M18.86,49.87A7.2,7.2,0,0,1,11.67,37.4c3.44-2,7.64-4.48,18.88-2.59C23.25,41.32,22.31,47.88,18.86,49.87Z"/><path class="cls-2" d="M52.65,6.82c-3.86.87-6.4,4.25-5.66,7.55s4.47,5.29,8.33,4.42S63.94,16.92,71.14,9C61.46,9.4,56.51,6,52.65,6.82Z"/><path class="cls-1" d="M87.49,44.64c-3.86.87-6.39,4.26-5.64,7.56s4.48,5.28,8.34,4.4,6.82-1.85,14-9.8C94.51,47.24,91.36,43.77,87.49,44.64Z"/><circle class="cls-3" cx="51.86" cy="87.37" r="30.57"/><ellipse class="cls-3" cx="65.54" cy="136.38" rx="39.72" ry="3.28"/><line class="cls-4" x1="39.88" y1="92.54" x2="65.32" y2="97.27"/><path class="cls-5" d="M39.55,69.57c.28-11,9.56-21.08,20.51-22.26,3.55-.38,7.17.07,10.67-.63,8.88-1.79,14.56-10.2,21.6-15.91a10.51,10.51,0,0,1,4-2.29,4.37,4.37,0,0,1,4.31,1.1"/><line class="cls-6" x1="60.61" y1="82.54" x2="66.09" y2="77.49"/><line class="cls-6" x1="41.95" y1="80.66" x2="49.94" y2="77.49"/><path class="cls-5" d="M75.05,86.82a16.55,16.55,0,0,1,15.12-9.59c3.75.08,7.37,1.46,11.11,1.71,9,.58,16.92-5.25,24-10.78"/><line class="cls-7" x1="1.42" y1="8.78" x2="11.78" y2="19.31"/><line class="cls-7" x1="82.43" y1="1.42" x2="92.79" y2="11.95"/><line class="cls-7" x1="1.42" y1="61.71" x2="11.78" y2="72.24"/></g></g></svg>