<svg width="26" height="26" viewBox="0 0 26 26" fill="none" xmlns="http://www.w3.org/2000/svg">
<g clip-path="url(#clip0_101_1225)">
<path d="M13 26C20.1797 26 26 20.1797 26 13C26 5.8203 20.1797 0 13 0C5.8203 0 0 5.8203 0 13C0 20.1797 5.8203 26 13 26Z" fill="white"/>
<path d="M18.3238 11.1429C18.4476 11.2667 18.4476 11.2667 18.4476 11.3905V14.6095C18.4476 14.7334 18.4476 14.8572 18.3238 14.8572C18.2 14.981 18.2 14.981 18.0762 14.981H15.2286C15.1048 14.981 15.1048 14.981 15.1048 15.1048V17.9524C15.1048 18.0762 15.1048 18.2 14.981 18.2C14.8572 18.3238 14.8572 18.3238 14.7334 18.3238H11.3905C11.2667 18.3238 11.1429 18.3238 11.1429 18.2C11.0191 18.0762 11.0191 18.0762 11.0191 17.9524V15.1048C11.0191 14.981 11.0191 14.981 10.8953 14.981H8.04764C7.92383 14.981 7.80002 14.981 7.80002 14.8572C7.67621 14.8572 7.67621 14.8572 7.67621 14.7334V11.5143C7.67621 11.3905 7.67621 11.2667 7.80002 11.2667C7.80002 11.1429 7.92383 11.1429 8.04764 11.1429H10.8953C11.0191 11.1429 11.0191 11.1429 11.0191 11.0191V8.04764C11.0191 7.92383 11.0191 7.80002 11.1429 7.80002C11.1429 7.67621 11.2667 7.67621 11.3905 7.67621H14.6095C14.7334 7.67621 14.8572 7.67621 14.8572 7.80002C14.981 7.92383 14.981 7.92383 14.981 8.04764V10.8953C14.981 11.0191 14.981 11.0191 15.1048 11.0191H17.9524C18.2 11.1429 18.2 11.1429 18.3238 11.1429Z" fill="black"/>
</g>
<defs>
<clipPath id="clip0_101_1225">
<rect width="26" height="26" fill="white"/>
</clipPath>
</defs>
</svg>
