<svg xmlns="http://www.w3.org/2000/svg" viewBox="0 0 131.02499 156.24134"><defs><style>.cls-1{fill:#fff;}.cls-2{fill:#1d1d1b;}.cls-3{fill:#0f2c3a;}.cls-4,.cls-5{fill:none;}.cls-4{stroke:#e20613;stroke-miterlimit:10;stroke-width:3.32667px;}.cls-5{stroke:#fff;stroke-linecap:round;stroke-linejoin:round;stroke-width:14.17323px;}.cls-6{fill:#ffed00;}</style></defs><title>Recurso 7</title><g id="Capa_2" data-name="Capa 2"><g id="_01" data-name="01"><circle class="cls-1" cx="65.92349" cy="103.9549" r="30.56674"/><ellipse class="cls-2" cx="65.92349" cy="152.96334" rx="25.33854" ry="3.278"/><path class="cls-3" d="M107.72849,26.60722a14.82477,14.82477,0,0,0-18.03112-18.685,14.76563,14.76563,0,0,0-17.3586,1.05324A14.82222,14.82222,0,0,0,48.04,4.54668,14.84281,14.84281,0,1,0,36.173,29.951,14.83234,14.83234,0,1,0,61.51436,45.15111,14.76578,14.76578,0,0,0,70.01659,44.115a14.83749,14.83749,0,0,0,24.897-5.91577c.12325-.4011.21709-.80379.30511-1.20656A14.84206,14.84206,0,0,0,107.72849,26.60722Z"/><rect class="cls-4" x="50.98926" y="114.43117" width="29.86846" height="9.9628" rx="4.9814"/><line class="cls-4" x1="58.72253" y1="114.43117" x2="58.72253" y2="124.39397"/><line class="cls-4" x1="65.92349" y1="114.43117" x2="65.92349" y2="124.39397"/><line class="cls-4" x1="73.12445" y1="114.43117" x2="73.12445" y2="124.39397"/><polyline class="cls-5" points="90.132 98.353 100.771 75.758 111.962 86.281 123.938 60.808"/><polyline class="cls-5" points="40.893 98.353 30.254 75.758 19.063 86.281 7.087 60.808"/><circle class="cls-3" cx="58.14353" cy="104.02416" r="5.04835"/><circle class="cls-3" cx="72.16381" cy="104.02416" r="5.04835"/><polygon class="cls-6" points="64.715 35.94 58.077 48.706 66.883 48.706 60.63 57.898 65.992 57.898 59.573 67.714 77.481 54.323 70.466 54.323 79.021 43.174 68.549 43.174 74.192 35.94 64.715 35.94"/></g></g></svg>