<?xml version="1.0" encoding="utf-8"?>
<!-- Generator: Adobe Illustrator 25.2.1, SVG Export Plug-In . SVG Version: 6.00 Build 0)  -->
<svg version="1.1" id="Capa_1" xmlns="http://www.w3.org/2000/svg" xmlns:xlink="http://www.w3.org/1999/xlink" x="0px" y="0px"
	 viewBox="0 0 26 26" style="enable-background:new 0 0 26 26;" xml:space="preserve">
<style type="text/css">
	.st0{clip-path:url(#SVGID_2_);}
</style>
<g>
	<g>
		<defs>
			<rect id="SVGID_1_" width="26" height="26"/>
		</defs>
		<clipPath id="SVGID_2_">
			<use xlink:href="#SVGID_1_"  style="overflow:visible;"/>
		</clipPath>
		<path class="st0" d="M19.7,5.7h-3.9c0-0.1,0.1-0.2,0.1-0.3V4.5c0-0.6-0.5-1.2-1.2-1.2h-3.4c-0.6,0-1.2,0.5-1.2,1.2v0.9
			c0,0.1,0,0.2,0.1,0.3H6.3c-0.7,0-1.2,0.5-1.2,1.2v3.8h1.1v9.9c0,1.1,0.9,2.1,2.1,2.1h9.5c1.1,0,2.1-0.9,2.1-2.1v-9.9h1.1V6.9
			C20.9,6.2,20.4,5.7,19.7,5.7z M10.3,19.6c0,0.4-0.3,0.7-0.7,0.7H8.7C8.3,20.3,8,20,8,19.6v-7.7c0-0.4,0.3-0.7,0.7-0.7h0.8
			c0.4,0,0.7,0.3,0.7,0.7V19.6z M14.2,19.6c0,0.4-0.3,0.7-0.7,0.7h-0.8c-0.4,0-0.7-0.3-0.7-0.7v-7.7c0-0.4,0.3-0.7,0.7-0.7h0.8
			c0.4,0,0.7,0.3,0.7,0.7V19.6z M18,19.6c0,0.4-0.3,0.7-0.7,0.7h-0.8c-0.4,0-0.7-0.3-0.7-0.7v-7.7c0-0.4,0.3-0.7,0.7-0.7h0.8
			c0.4,0,0.7,0.3,0.7,0.7V19.6z"/>
	</g>
</g>
</svg>
